<svg width="78" height="70" viewBox="0 0 78 70" fill="none" xmlns="http://www.w3.org/2000/svg">
<path d="M38.6846 39.5791C43.9679 39.5762 49.1705 40.1336 54.293 41.252C59.0959 42.3005 63.8298 43.8352 68.4951 45.8555L69.4268 46.2656C71.6822 47.3144 73.4843 48.8298 74.8428 50.8154C76.1988 52.7976 76.8713 54.9606 76.8682 57.3154V68.9736H0.5V57.3154C0.500068 54.9577 1.1746 52.7954 2.53027 50.8164C3.88996 48.8317 5.69204 47.3135 7.94727 46.2617C12.9115 44.0333 17.9546 42.3641 23.0752 41.252C28.1979 40.1394 33.4009 39.582 38.6846 39.5791ZM38.6846 0.5C43.8862 0.500077 48.3192 2.15878 52.0107 5.47363C55.7007 8.7871 57.5263 12.7441 57.5264 17.3682C57.5264 21.9922 55.7007 25.9492 52.0107 29.2627C48.3192 32.5776 43.8862 34.2372 38.6846 34.2373C33.4828 34.2373 29.05 32.5775 25.3584 29.2627C21.6683 25.9492 19.8418 21.9923 19.8418 17.3682C19.8419 12.7441 21.6684 8.7871 25.3584 5.47363C29.05 2.15895 33.483 0.5 38.6846 0.5Z" fill="#BFBFBF" stroke="#BFBFBF"/>
</svg>
