<svg width="186" height="180" viewBox="0 0 186 180" fill="none" xmlns="http://www.w3.org/2000/svg">
<path d="M93.001 103.75C105.596 103.743 117.998 105.176 130.209 108.049C142.042 110.833 153.705 114.951 165.201 120.407L166.313 120.939C171.508 123.547 175.663 127.31 178.81 132.268C181.948 137.211 183.507 142.603 183.5 148.497V177.5H2.5V148.5C2.5 142.596 4.06358 137.204 7.20117 132.269C10.2568 127.462 14.2597 123.774 19.2383 121.17L19.7227 120.921C31.5662 115.193 43.5875 110.905 55.7881 108.049C68.0009 105.19 80.4042 103.757 93.001 103.75ZM93 2.5C105.145 2.5 115.467 6.65892 124.103 15.0156C132.735 23.3698 137 33.3205 137 45C137 56.6795 132.735 66.6302 124.103 74.9844C115.467 83.3411 105.145 87.5 93 87.5C80.8547 87.5 70.5327 83.3411 61.8975 74.9844C53.265 66.6302 49 56.6795 49 45C49 33.3205 53.265 23.3698 61.8975 15.0156C70.5327 6.65892 80.8547 2.5 93 2.5Z" stroke="black" stroke-width="5"/>
</svg>
