<svg width="25" height="25" viewBox="0 0 25 25" fill="none" xmlns="http://www.w3.org/2000/svg">
<path d="M11.1467 3.0021H4.80501C2.70356 3.0021 1 4.69763 1 6.78918V19.4129C1 21.5045 2.70356 23.2 4.80501 23.2H17.4884C19.5898 23.2 21.2934 21.5045 21.2934 19.4129L21.2934 13.101M7.34168 16.8881L11.9563 15.9626C12.2013 15.9135 12.4262 15.7934 12.6029 15.6175L22.9331 5.33029C23.4284 4.83707 23.4281 4.03759 22.9324 3.54478L20.744 1.36923C20.2485 0.87663 19.4457 0.876966 18.9506 1.36998L8.61927 11.6583C8.44296 11.8339 8.32257 12.0573 8.27317 12.3006L7.34168 16.8881Z" stroke="#BFBFBF" stroke-width="2" stroke-linecap="round" stroke-linejoin="round"/>
</svg>
